<?xml version="1.0" encoding="UTF-8"?>
<svg id="Layer_1" xmlns="http://www.w3.org/2000/svg" version="1.1" viewBox="0 0 122.88 122.88">
  <!-- Generator: Adobe Illustrator 29.5.1, SVG Export Plug-In . SVG Version: 2.1.0 Build 141)  -->
  <defs>
    <style>
      .st0 {
        fill-rule: evenodd;
      }

      .st0, .st1 {
        fill: #fff;
      }
    </style>
  </defs>
  <path class="st0" d="M1.04,79.96l63.66-63.66c.55.07,1.13-.1,1.55-.52.42-.42.6-1,.52-1.55l13.19-13.19c1.39-1.39,3.66-1.39,5.05,0l10.43,10.44c-2.74,4.47-2.17,10.39,1.7,14.26,3.87,3.87,9.79,4.43,14.26,1.7l10.43,10.43c1.39,1.39,1.39,3.66,0,5.05l-13.19,13.19c-.55-.07-1.12.1-1.55.52-.42.42-.6,1-.52,1.55l-63.65,63.65c-1.39,1.39-3.66,1.39-5.05,0l-10.37-10.36c2.98-4.51,2.48-10.63-1.48-14.6-3.97-3.97-10.09-4.46-14.6-1.48l-10.38-10.38c-1.39-1.39-1.39-3.66,0-5.05h0ZM102.27,51.81c.72-.72,1.89-.72,2.61,0s.72,1.89,0,2.61-1.89.72-2.61,0c-.72-.72-.72-1.89,0-2.61h0ZM97.44,46.98c.72-.72,1.89-.72,2.61,0s.72,1.89,0,2.61-1.89.72-2.61,0-.72-1.89,0-2.61h0ZM92.61,42.15c.72-.72,1.89-.72,2.61,0s.72,1.89,0,2.61-1.89.72-2.61,0-.72-1.89,0-2.61h0ZM87.78,37.32c.72-.72,1.89-.72,2.61,0s.72,1.89,0,2.61-1.89.72-2.61,0-.72-1.89,0-2.61h0ZM82.95,32.49c.72-.72,1.89-.72,2.61,0,.72.72.72,1.89,0,2.61s-1.89.72-2.61,0c-.72-.72-.72-1.89,0-2.61h0ZM78.12,27.66c.72-.72,1.89-.72,2.61,0s.72,1.89,0,2.61c-.72.72-1.89.72-2.61,0-.72-.72-.72-1.89,0-2.61h0ZM73.29,22.83c.72-.72,1.89-.72,2.61,0s.72,1.89,0,2.61c-.72.72-1.89.72-2.61,0-.72-.72-.72-1.89,0-2.61h0ZM68.46,18c.72-.72,1.89-.72,2.61,0s.72,1.89,0,2.61c-.72.72-1.89.72-2.61,0-.72-.72-.72-1.89,0-2.61h0ZM25.45,74.91l39.38-39.38c1.62-1.62,4.27-1.62,5.89,0l18.1,18.1c1.62,1.62,1.62,4.27,0,5.89l-39.38,39.38c-1.62,1.62-4.27,1.62-5.89,0l-18.1-18.1c-1.62-1.62-1.62-4.27,0-5.89h0Z"/>
  <g>
    <path class="st1" d="M29.15,79.69l1.55-1.55,4.47,4.48,2.45-2.45,1.3,1.3-4,4-5.77-5.77Z"/>
    <path class="st1" d="M39.52,79.36c-1.18.05-2.2-.36-3.05-1.21-.85-.85-1.26-1.87-1.21-3.05.05-1.15.5-2.15,1.35-3,.85-.85,1.85-1.3,3-1.35,1.18-.05,2.2.35,3.05,1.21.85.85,1.25,1.87,1.21,3.05-.05,1.15-.49,2.15-1.34,3-.85.85-1.85,1.3-3,1.35ZM41.83,75.08c-.03-.56-.28-1.08-.75-1.55-.47-.47-.98-.72-1.54-.75-.59-.03-1.11.18-1.58.66-.47.47-.69,1-.66,1.59.03.56.28,1.08.75,1.55.47.47.99.72,1.55.75.59.04,1.12-.18,1.59-.65.47-.47.69-1,.65-1.59Z"/>
    <path class="st1" d="M44.83,69.8l2.88,2.88-1.45,1.45-5.85-5.85c-.08-.08-.04-.12.1-.14l6.61-.63-2.9-2.9,1.45-1.45,5.85,5.85c.08.08.05.12-.09.14l-6.6.65Z"/>
    <path class="st1" d="M53.35,63.15l-1.19-1.19,2.72-2.72.26.24c.96.96,1.44,1.96,1.44,3,0,.99-.43,1.92-1.31,2.8-.83.83-1.82,1.26-2.95,1.29-1.17.02-2.17-.39-3.03-1.25-.86-.86-1.27-1.86-1.25-3.01.02-1.12.45-2.1,1.28-2.93,1.15-1.15,2.39-1.53,3.74-1.15l-.48,1.98c-.34-.09-.66-.11-.96-.04-.35.08-.68.27-.98.58-.44.44-.63.94-.57,1.5.06.52.33,1.02.8,1.5.47.47.98.73,1.52.79.58.06,1.1-.14,1.55-.6.62-.62.79-1.25.52-1.89l-1.11,1.11Z"/>
    <path class="st1" d="M58.56,50.28l1.54-1.55,5.77,5.77-1.54,1.55-1.83-1.83-2,2,1.83,1.83-1.54,1.54-5.77-5.77,1.54-1.54,2.64,2.64,2-2-2.64-2.64Z"/>
    <path class="st1" d="M62.19,44.7l.31-.31c.23-.23.24-.44.05-.63-.17-.17-.36-.16-.55.03-.17.17-.21.37-.14.63l-.9.27c-.08-.24-.09-.49-.03-.75.07-.29.23-.55.48-.8.3-.3.63-.47.97-.51.33-.04.62.06.86.3.46.46.5.98.12,1.54l.26.26-.7.7-.73-.73ZM67.93,52.46l-1.51,1.51-3.06-8.68s-.02-.07,0-.1c.02-.02.05-.02.1,0l8.67,3.07-1.6,1.6-.71-.27-2.17,2.17.28.7ZM66.22,48.19l.77,1.92,1.17-1.17-1.94-.75Z"/>
    <path class="st1" d="M66.92,41.92l1.55-1.55,5.77,5.77-1.55,1.55-5.77-5.77Z"/>
    <path class="st1" d="M47.51,84.3l-1.53,1.53-1.3-1.3,4.6-4.6,1.3,1.3-1.53,1.53,4.47,4.47-1.54,1.54-4.47-4.47Z"/>
    <path class="st1" d="M50.01,79.2l1.54-1.55,5.77,5.77-1.54,1.55-5.77-5.77Z"/>
    <path class="st1" d="M62.32,75.84c.37,1.46-.01,2.76-1.16,3.91-.83.83-1.81,1.25-2.94,1.28-1.16.03-2.17-.38-3.02-1.23s-1.27-1.85-1.25-3.01c.02-1.12.42-2.07,1.22-2.87.59-.59,1.22-.98,1.88-1.18.58-.17,1.2-.2,1.85-.07l-.38,1.95c-.34-.07-.65-.07-.93,0-.37.09-.72.29-1.06.63-.42.42-.6.91-.54,1.47.05.54.32,1.05.78,1.51.46.46.97.72,1.52.77.58.05,1.08-.14,1.51-.57.35-.35.56-.71.64-1.09.06-.32.04-.67-.08-1.07l1.95-.42Z"/>
    <path class="st1" d="M61.75,67.45l1.71-1.71.96,5.52,4.92.14-2,2-3.33-.14,1.74,1.74-1.55,1.55-5.77-5.77,1.55-1.55,2.63,2.63-.86-4.41Z"/>
    <path class="st1" d="M64.13,65.08l4.05-4.05,1.3,1.3-2.5,2.5,1.34,1.34,2.09-2.09,1.23,1.23-2.09,2.09.6.61,2.62-2.62,1.3,1.3-4.17,4.17-5.77-5.77Z"/>
    <path class="st1" d="M71.56,60.24l-1.53,1.53-1.3-1.3,4.6-4.6,1.3,1.3-1.53,1.53,4.47,4.47-1.54,1.54-4.47-4.47Z"/>
  </g>
</svg>