<?xml version="1.0" encoding="UTF-8"?>
<svg id="Layer_1" xmlns="http://www.w3.org/2000/svg" xmlns:xlink="http://www.w3.org/1999/xlink" version="1.1" viewBox="0 0 24 24">
  <!-- Generator: Adobe Illustrator 29.5.1, SVG Export Plug-In . SVG Version: 2.1.0 Build 141)  -->
  <defs>
    <style>
      .st0 {
        fill: none;
      }

      .st1 {
        fill: #05586c;
        fill-rule: evenodd;
      }

      .st2 {
        clip-path: url(#clippath);
      }
    </style>
    <clipPath id="clippath">
      <rect class="st0" y="0" width="24" height="24"/>
    </clipPath>
  </defs>
  <g class="st2">
    <path class="st1" d="M11.96.36c2.16.02,4.12.56,5.86,1.6,1.72,1.02,3.16,2.46,4.17,4.19,1.03,1.76,1.56,3.72,1.59,5.9-.06,2.98-1,5.52-2.82,7.63-1.82,2.11-4.14,3.41-6.55,3.91v-8.35h2.28l.52-3.28h-3.45v-2.15c-.02-.45.12-.88.4-1.23.28-.35.76-.54,1.46-.55h2.08v-2.87s-.31-.05-.85-.11c-.61-.07-1.22-.11-1.84-.11-1.39,0-2.49.4-3.29,1.18-.81.78-1.22,1.9-1.24,3.37v2.49h-2.63v3.28h2.63v8.35c-2.96-.5-5.29-1.81-7.1-3.91C1.35,17.57.41,15.03.35,12.05c.02-2.18.55-4.14,1.59-5.9,1.01-1.73,2.44-3.17,4.17-4.19,1.75-1.04,3.7-1.57,5.86-1.6Z"/>
  </g>
</svg>