<?xml version="1.0" encoding="UTF-8"?>
<svg id="Layer_1" xmlns="http://www.w3.org/2000/svg" version="1.1" viewBox="0 0 32 32">
  <!-- Generator: Adobe Illustrator 29.5.1, SVG Export Plug-In . SVG Version: 2.1.0 Build 141)  -->
  <defs>
    <style>
      .st0 {
        fill: #05586c;
      }
    </style>
  </defs>
  <path class="st0" d="M31.3,15.71v.82l-.09,1.2c-.73,7.13-6.51,12.88-13.63,13.61l-1.26.09c-.24,0-.47,0-.71,0C6.17,31.12-.8,22.64.93,13.27,2.16,6.59,7.87,1.4,14.66.85,23.52.12,30.99,6.88,31.3,15.71ZM17.39,6.44c-.58.03-.78.76-.32,1.07.22.15.87.16,1.18.21,3.03.54,5.55,2.87,6.32,5.85.13.51.15.97.24,1.47.14.79,1.11.71,1.18.06.04-.36-.12-1.16-.21-1.54-.74-3.34-3.39-6.03-6.7-6.86-.48-.12-1.21-.27-1.69-.25ZM9.84,7.69c-.25,0-.45.1-.64.26l-2.99,2.91c-.4.49-.1,1.24.05,1.79,1.66,6.2,6.58,11.14,12.78,12.81.41.11,1.22.36,1.6.25.31-.08.57-.41.79-.63.86-.86,1.66-1.78,2.51-2.66.36-.53.18-1.09-.35-1.4-1.2-.71-2.63-1.24-3.85-1.94-.97-.43-1.43.75-2.07,1.22-.3.22-.64-.04-.91-.19-1.82-1.01-3.55-2.68-4.69-4.42-.14-.22-.65-.99-.68-1.19-.02-.14-.01-.26.07-.38.26-.38.95-.77,1.18-1.2.13-.24.15-.54.05-.8-.72-1.23-1.26-2.73-2-3.93-.19-.3-.47-.51-.84-.5ZM17.67,9.42c-.46.08-.63.68-.29,1.02.17.17.62.2.86.28,1.53.44,2.81,1.62,3.35,3.11.11.3.23,1.04.4,1.22.2.22.54.24.78.07.37-.27.22-.71.13-1.09-.53-2.12-2.26-3.87-4.36-4.46-.22-.06-.65-.18-.86-.14ZM17.45,12.37c-.52.09-.62.87-.08,1.12.61.29.94.35,1.32.97.23.37.26.99.83.96.42-.02.63-.38.54-.77-.13-.58-.63-1.27-1.08-1.64-.34-.28-1.08-.72-1.52-.65Z"/>
</svg>