<svg xmlns="http://www.w3.org/2000/svg" width="32" height="32" viewBox="0 0 32 32" fill="none">
    <g clip-path="url(#clip0_82_264)">
        <path d="M24.0209 5.90819L22.5632 4.9362V9.50111C22.5632 10.535 21.7219 11.3763 20.688 11.3763C19.6541 11.3763 18.8128 10.535 18.8128 9.50111V8.5635C18.8128 5.56003 17.7583 3.54041 15.9999 2.22089C13.7684 0.546939 10.4043 0 6.62384 0H4.36045L5.96064 1.60081C8.13777 3.77732 7.5327 6.48013 5.93751 8.11408C3.35658 10.7563 1.93579 14.2454 1.93579 17.9396C1.93579 25.6549 8.17277 31.9987 15.9999 32H16.0024C24.409 32 30.0641 25.3448 30.0641 17.9396V17.2001C30.0641 12.6521 27.8051 8.43099 24.0209 5.90819Z" fill="#1F2A5C"/>
        <path d="M30.0641 17.2002V17.9397C30.0641 25.3449 24.4091 32.0001 16.0025 32.0001H16V2.22095C17.7583 3.54048 18.8128 5.56009 18.8128 8.56357V9.50118C18.8128 10.535 19.6542 11.3764 20.688 11.3764C21.7219 11.3764 22.5633 10.535 22.5633 9.50118V4.93627L24.0209 5.90825C27.8051 8.43105 30.0641 12.6522 30.0641 17.2002Z" fill="#1F2A5C"/>
        <path d="M19.4285 19.4928L18.7659 20.156C18.399 20.5223 17.8064 20.5223 17.4395 20.156L16.1137 18.8302C16.0706 18.7871 16.0325 18.7408 16 18.6921C15.7856 18.3758 15.7856 17.9583 16 17.642C16.0325 17.5932 16.0706 17.5469 16.1137 17.5038L16.7769 16.8412L12.799 12.8633L10.81 14.8523C8.97726 16.6844 8.97788 19.6497 10.81 21.4818L14.7879 25.4598C15.153 25.8248 15.5624 26.1173 16 26.3367C17.7564 27.2193 19.9504 26.9268 21.4175 25.4598L23.4064 23.4708L19.4285 19.4928Z" fill="#EDF5FF"/>
        <path d="M16.1138 17.504C16.0706 17.5471 16.0325 17.5934 16 17.6421V16.0645L16.777 16.8414L16.1138 17.504Z" fill="#D5E8FE"/>
        <path d="M23.4065 23.4711L21.4175 25.4601C19.9505 26.9271 17.7565 27.2196 16 26.337V18.6924C16.0325 18.7411 16.0706 18.7874 16.1138 18.8305L17.4395 20.1563C17.8065 20.5226 18.399 20.5226 18.7659 20.1563L19.4285 19.4931L23.4065 23.4711Z" fill="#D5E8FE"/>
    </g>
    <defs>
        <clipPath id="clip0_82_264">
            <rect width="32" height="32" fill="white"/>
        </clipPath>
    </defs>
</svg>