<?xml version="1.0" encoding="UTF-8"?>
<svg id="Layer_1" xmlns="http://www.w3.org/2000/svg" xmlns:xlink="http://www.w3.org/1999/xlink" version="1.1" viewBox="0 0 27 26">
  <!-- Generator: Adobe Illustrator 29.5.1, SVG Export Plug-In . SVG Version: 2.1.0 Build 141)  -->
  <defs>
    <style>
      .st0 {
        fill: none;
      }

      .st1 {
        fill: #05586c;
      }

      .st2 {
        clip-path: url(#clippath);
      }
    </style>
    <clipPath id="clippath">
      <rect class="st0" x=".64" y=".14" width="25.71" height="25.71"/>
    </clipPath>
  </defs>
  <g class="st2">
    <path class="st1" d="M24.77,6.59c-1.47,0-2.82-.49-3.91-1.31-1.25-.94-2.14-2.32-2.46-3.91-.08-.39-.12-.8-.12-1.21h-4.19v17.73c0,1.68-1.1,3.1-2.61,3.6-.44.15-.91.21-1.41.19-.63-.03-1.22-.22-1.74-.53-1.09-.65-1.83-1.84-1.85-3.2-.03-2.12,1.68-3.85,3.8-3.85.42,0,.82.07,1.2.19v-4.26c-.4-.06-.8-.09-1.21-.09-2.32,0-4.49.96-6.04,2.7-1.17,1.31-1.88,2.99-1.98,4.74-.14,2.31.7,4.5,2.34,6.12.24.24.49.46.76.66,1.4,1.08,3.12,1.67,4.93,1.67.41,0,.81-.03,1.21-.09,1.69-.25,3.25-1.02,4.48-2.24,1.51-1.49,2.35-3.48,2.35-5.59l-.02-9.37c.72.56,1.51,1.02,2.35,1.37,1.32.55,2.71.84,4.15.84v-4.17s-.01,0-.01,0Z"/>
  </g>
</svg>