<?xml version="1.0" encoding="UTF-8"?>
<svg id="Layer_1" xmlns="http://www.w3.org/2000/svg" xmlns:xlink="http://www.w3.org/1999/xlink" version="1.1" viewBox="0 0 24 24">
  <!-- Generator: Adobe Illustrator 29.5.1, SVG Export Plug-In . SVG Version: 2.1.0 Build 141)  -->
  <defs>
    <style>
      .st0 {
        fill: none;
      }

      .st1 {
        fill: #05586c;
      }

      .st2 {
        clip-path: url(#clippath);
      }
    </style>
    <clipPath id="clippath">
      <rect class="st0" y="0" width="24" height="24"/>
    </clipPath>
  </defs>
  <g class="st2">
    <g>
      <path class="st1" d="M10.56,9.7l3.74,2.3-3.74,2.3v-4.6Z"/>
      <path class="st1" d="M12,0C9.63,0,7.31.7,5.33,2.02,3.36,3.34,1.82,5.21.91,7.41,0,9.6-.23,12.01.23,14.34c.46,2.33,1.61,4.47,3.28,6.14,1.68,1.68,3.82,2.82,6.14,3.28,2.33.46,4.74.23,6.93-.68,2.19-.91,4.07-2.45,5.39-4.42,1.32-1.97,2.02-4.29,2.02-6.67,0-3.18-1.26-6.23-3.51-8.49C18.23,1.26,15.18,0,12,0ZM17.72,14.89c-.24.74-1.03,1.19-1.77,1.29-2.63.28-5.28.28-7.91,0-.73-.1-1.53-.55-1.77-1.29-.37-1.91-.37-3.87,0-5.77.24-.75,1.03-1.19,1.77-1.29,2.63-.28,5.28-.28,7.91,0,.73.1,1.53.55,1.77,1.29.37,1.91.37,3.87,0,5.77Z"/>
    </g>
  </g>
</svg>