<svg xmlns:xlink="http://www.w3.org/1999/xlink" xmlns="http://www.w3.org/2000/svg" width="22" height="22" viewBox="0 0 22 22" fill="none">
    <path d="M18.3494 5.36249C16.995 2.52311 14.2038 0.728738 11.0619 0.687488C7.91317 0.646238 5.12192 2.37874 3.71942 5.22499C2.26192 8.17436 2.60567 11.5912 4.62692 14.1556L9.84505 20.7831C10.1132 21.12 10.5119 21.3125 10.9382 21.3125C11.3644 21.3125 11.7632 21.12 12.0313 20.7831L17.3869 13.9769C19.3326 11.5019 19.6969 8.20874 18.3494 5.36936V5.36249ZM16.3144 13.1244L10.9313 19.9306L5.71317 13.3031C4.0288 11.165 3.74005 8.29811 4.95692 5.83686C6.12567 3.47186 8.36005 2.06936 10.945 2.06936H11.0482C13.7019 2.11061 15.9707 3.56124 17.1119 5.96061C18.2532 8.35999 17.9575 11.0344 16.3144 13.1244Z" fill="#EAA43F"></path>
    <path d="M10.9381 4.92249C8.8687 4.92249 7.18433 6.60686 7.18433 8.67623C7.18433 10.7456 8.8687 12.43 10.9381 12.43C13.0075 12.43 14.6918 10.7456 14.6918 8.67623C14.6918 6.60686 13.0075 4.92249 10.9381 4.92249ZM10.9381 11.0481C9.62495 11.0481 8.55933 9.98248 8.55933 8.66936C8.55933 7.35624 9.62495 6.29061 10.9381 6.29061C12.2512 6.29061 13.3168 7.35624 13.3168 8.66936C13.3168 9.98248 12.2512 11.0481 10.9381 11.0481Z" fill="#EAA43F"></path>
</svg>