<svg xmlns="http://www.w3.org/2000/svg" width="25" height="25" viewBox="0 0 25 25" fill="none">
    <path fill-rule="evenodd" clip-rule="evenodd" d="M12.277 13.6942C11.608 13.6942 10.941 13.4732 10.383 13.0312L5.89798 9.41524C5.57498 9.15524 5.52498 8.68224 5.78398 8.36024C6.04498 8.03924 6.51698 7.98824 6.83898 8.24724L11.32 11.8592C11.883 12.3052 12.676 12.3052 13.243 11.8552L17.679 8.24924C18.001 7.98624 18.473 8.03624 18.735 8.35824C18.996 8.67924 18.947 9.15124 18.626 9.41324L14.182 13.0252C13.62 13.4712 12.948 13.6942 12.277 13.6942Z" fill="#F9D59B"/>
    <path fill-rule="evenodd" clip-rule="evenodd" d="M17.159 20.2295C17.161 20.2275 17.169 20.2295 17.175 20.2295C18.316 20.2295 19.328 19.8215 20.104 19.0465C21.005 18.1495 21.5 16.8605 21.5 15.4175V8.54949C21.5 5.75649 19.674 3.72949 17.159 3.72949H7.341C4.826 3.72949 3 5.75649 3 8.54949V15.4175C3 16.8605 3.496 18.1495 4.396 19.0465C5.172 19.8215 6.185 20.2295 7.325 20.2295H17.159ZM7.322 21.7295C5.779 21.7295 4.401 21.1695 3.337 20.1095C2.152 18.9275 1.5 17.2615 1.5 15.4175V8.54949C1.5 4.94649 4.011 2.22949 7.341 2.22949H17.159C20.489 2.22949 23 4.94649 23 8.54949V15.4175C23 17.2615 22.348 18.9275 21.163 20.1095C20.1 21.1685 18.721 21.7295 17.175 21.7295H7.322Z" fill="#F9D59B"/>
</svg>