<svg xmlns="http://www.w3.org/2000/svg" width="25" height="25" viewBox="0 0 25 25" fill="none">
    <path d="M22.8215 16.3081L20.9083 14.3948C19.8028 13.2893 17.8768 13.2886 16.772 14.3948L15.0155 16.1506C14.9915 16.1746 14.9555 16.1813 14.936 16.1753C13.3715 15.6443 12.0357 14.8321 10.967 13.7633C9.8975 12.6946 9.086 11.3588 8.555 9.7943C8.54825 9.77405 8.555 9.7388 8.579 9.7148L10.3355 7.9583C10.8882 7.40555 11.1927 6.6713 11.1927 5.8898C11.1927 5.1083 10.8882 4.37405 10.3355 3.8213L8.42225 1.90805C7.2815 0.767303 5.426 0.767303 4.286 1.90805L3.488 2.70455C1.87625 4.31705 1.08875 6.56105 1.38275 8.70305C1.85225 12.2401 3.5345 15.4838 6.3845 18.3458C9.24425 21.1943 12.4888 22.8766 16.0228 23.3461C16.3198 23.3866 16.6183 23.4068 16.9168 23.4068C18.776 23.4068 20.6345 22.6306 22.0243 21.2408L22.8215 20.4443C23.9615 19.3036 23.9615 17.4481 22.8215 16.3081ZM21.8668 19.4903L21.0703 20.2868C19.754 21.6023 17.9353 22.2481 16.2043 22.0081C12.9672 21.5783 9.98375 20.0243 7.34 17.3911C4.70525 14.7458 3.15125 11.7623 2.72075 8.5223C2.48375 6.7928 3.12725 4.97555 4.44275 3.6593L5.23925 2.8628C5.54675 2.5553 5.9495 2.4023 6.353 2.4023C6.7565 2.4023 7.15925 2.55605 7.46675 2.8628L9.38 4.77605C9.677 5.0738 9.84125 5.46905 9.84125 5.8898C9.84125 6.31055 9.677 6.7058 9.38 7.00355L7.62275 8.7608C7.2395 9.1448 7.10375 9.7208 7.27625 10.2286C7.874 11.9911 8.795 13.5016 10.0115 14.7181C11.228 15.9353 12.7385 16.8556 14.501 17.4533C15.0095 17.6266 15.5848 17.4893 15.9695 17.1061L17.7268 15.3496C18.3215 14.7548 19.3588 14.7556 19.9543 15.3496L21.8675 17.2628C22.481 17.8763 22.481 18.8761 21.8668 19.4903Z" fill="#F9D59B"/>
    <path d="M14.4867 4.50076C15.716 4.97401 16.907 5.76601 17.9307 6.78901C18.9522 7.81051 19.7465 9.00526 20.2287 10.2443C20.333 10.5113 20.588 10.6748 20.858 10.6748C20.9397 10.6748 21.0222 10.6598 21.1032 10.6283C21.4505 10.4925 21.6222 10.1018 21.4872 9.75376C20.9375 8.34226 20.0375 6.98701 18.8847 5.83426C17.7282 4.67776 16.376 3.78151 14.972 3.24076C14.6247 3.10651 14.2332 3.27976 14.099 3.62776C13.9647 3.97576 14.1395 4.36726 14.4867 4.50076Z" fill="#F9D59B"/>
    <path d="M14.9975 6.71859C14.648 6.59034 14.2595 6.76659 14.1297 7.11609C14 7.46559 14.1777 7.85409 14.5272 7.98384C14.9757 8.15034 15.4325 8.45784 15.848 8.87334C16.2575 9.28284 16.5732 9.75159 16.7375 10.1941C16.8387 10.4663 17.0967 10.6343 17.3705 10.6343C17.4485 10.6343 17.528 10.6201 17.6052 10.5916C17.9547 10.4618 18.1325 10.0733 18.0027 9.72384C17.7687 9.09459 17.354 8.47059 16.802 7.91859C16.2507 7.36809 15.6267 6.95259 14.9975 6.71859Z" fill="#F9D59B"/>
</svg>