<?xml version="1.0" encoding="UTF-8"?>
<svg id="Layer_1" xmlns="http://www.w3.org/2000/svg" version="1.1" viewBox="0 0 122.88 72.75">
  <!-- Generator: Adobe Illustrator 29.5.1, SVG Export Plug-In . SVG Version: 2.1.0 Build 141)  -->
  <defs>
    <style>
      .st0 {
        fill-rule: evenodd;
      }

      .st0, .st1 {
        fill: #fff;
      }
    </style>
  </defs>
  <path class="st0" d="M5.63,7.49h90.03c.34.44.87.73,1.46.73.59,0,1.13-.28,1.46-.73h18.65c1.97,0,3.57,1.61,3.57,3.57v14.76c-5.11,1.22-8.89,5.81-8.89,11.29,0,5.47,3.79,10.06,8.88,11.29v14.75c0,1.97-1.61,3.57-3.57,3.57h-18.65c-.34-.44-.86-.72-1.46-.73-.59,0-1.13.28-1.46.73H5.64c-1.97,0-3.57-1.61-3.57-3.57v-14.66c5.29-1.08,9.26-5.76,9.27-11.37,0-5.61-3.98-10.29-9.28-11.37v-14.68c0-1.97,1.61-3.57,3.57-3.57h0ZM97.12,59.17c1.02,0,1.85.83,1.85,1.85s-.83,1.85-1.85,1.85-1.85-.83-1.85-1.85.83-1.85,1.85-1.85h0ZM97.12,52.34c1.02,0,1.85.83,1.85,1.85s-.83,1.85-1.85,1.85-1.85-.83-1.85-1.85.83-1.85,1.85-1.85h0ZM97.12,45.5c1.02,0,1.85.83,1.85,1.85s-.83,1.85-1.85,1.85-1.85-.83-1.85-1.85.83-1.85,1.85-1.85h0ZM97.12,38.67c1.02,0,1.85.83,1.85,1.85s-.83,1.85-1.85,1.85-1.85-.83-1.85-1.85.83-1.85,1.85-1.85h0ZM97.12,31.84c1.02,0,1.85.83,1.85,1.85,0,1.02-.83,1.85-1.85,1.85s-1.85-.83-1.85-1.85.83-1.85,1.85-1.85h0ZM97.12,25.01c1.02,0,1.85.83,1.85,1.85s-.83,1.85-1.85,1.85c-1.02,0-1.85-.83-1.85-1.85s.83-1.85,1.85-1.85h0ZM97.12,18.18c1.02,0,1.85.83,1.85,1.85s-.83,1.85-1.85,1.85c-1.02,0-1.85-.83-1.85-1.85s.83-1.85,1.85-1.85h0ZM97.12,11.35c1.02,0,1.85.83,1.85,1.85s-.83,1.85-1.85,1.85c-1.02,0-1.85-.83-1.85-1.85s.83-1.85,1.85-1.85h0ZM26.46,21.18h55.69c2.29,0,4.16,1.87,4.16,4.16v25.6c0,2.29-1.87,4.16-4.16,4.16H26.46c-2.29,0-4.16-1.87-4.16-4.16v-25.6c0-2.29,1.87-4.16,4.16-4.16h0Z"/>
  <g>
    <path class="st1" d="M25.7,27.18h2.19s0,6.33,0,6.33h3.46v1.84h-5.66v-8.16s0,0,0,0Z"/>
    <path class="st1" d="M33.26,34.28c-.87-.8-1.3-1.81-1.3-3.01s.43-2.21,1.3-3.01c.85-.78,1.87-1.17,3.08-1.17s2.23.39,3.08,1.17c.87.8,1.31,1.8,1.3,3.01,0,1.2-.44,2.21-1.3,3.01-.85.78-1.87,1.17-3.07,1.17s-2.23-.39-3.08-1.17h0ZM37.92,32.88c.37-.42.57-.96.57-1.63s-.18-1.2-.56-1.62c-.4-.44-.91-.66-1.58-.65-.66,0-1.2.22-1.59.66-.37.42-.57.96-.57,1.63s.19,1.21.57,1.63c.39.45.92.66,1.58.66s1.2-.22,1.58-.66h0Z"/>
    <path class="st1" d="M43.78,31.27v4.07s-2.05,0-2.05,0v-8.27c0-.11.06-.11.17-.03l5.12,4.23v-4.1h2.05v8.27c0,.11-.05.12-.16.04l-5.13-4.21Z"/>
    <path class="st1" d="M54.51,32.59v-1.68h3.85v.35c.01,1.36-.35,2.4-1.09,3.14s-1.66,1.05-2.91,1.05c-1.17,0-2.18-.4-3-1.17-.84-.81-1.26-1.81-1.26-3.03,0-1.22.42-2.21,1.24-3.01.81-.78,1.8-1.17,2.98-1.17,1.63,0,2.77.61,3.46,1.83l-1.74,1.06c-.18-.3-.39-.54-.65-.71-.3-.19-.67-.29-1.1-.28-.62,0-1.11.22-1.46.66-.33.41-.49.95-.49,1.63,0,.66.18,1.21.52,1.63.37.45.88.68,1.52.67.88,0,1.44-.33,1.7-.97h-1.57,0Z"/>
    <path class="st1" d="M67.29,27.18h2.18s0,8.15,0,8.15h-2.18s0-2.58,0-2.58h-2.83v2.59h-2.18v-8.16h2.18v3.73h2.83v-3.73Z"/>
    <path class="st1" d="M73.8,25.8h.44c.33,0,.48-.14.48-.41,0-.24-.14-.37-.41-.37-.24,0-.41.11-.54.35l-.83-.45c.11-.23.28-.41.51-.55.25-.16.55-.23.91-.23.42,0,.78.11,1.05.33.26.21.4.48.4.82,0,.65-.34,1.05-1,1.17v.37h-.99v-1.03ZM72.37,35.34h-2.14s3.97-8.3,3.97-8.3c0,0,.04-.06.07-.07.03,0,.05.02.07.07l3.96,8.3h-2.26l-.31-.69h-3.07s-.3.69-.3.69ZM74.18,31.11l-.81,1.9h1.65s-.84-1.9-.84-1.9Z"/>
    <path class="st1" d="M79.11,27.18h2.19v8.16h-2.19v-8.16Z"/>
    <path class="st1" d="M35.42,43.42h-2.16v-1.84h6.51v1.84h-2.16v6.32h-2.18v-6.32Z"/>
    <path class="st1" d="M40.79,41.58h2.18s0,8.15,0,8.15h-2.18s0-8.15,0-8.15Z"/>
    <path class="st1" d="M51.87,47.91c-.77,1.29-1.96,1.94-3.59,1.94-1.17,0-2.16-.4-2.98-1.17-.84-.8-1.27-1.8-1.27-3.01s.41-2.21,1.24-3.01c.81-.78,1.76-1.17,2.89-1.17.83,0,1.56.17,2.16.49.53.29.99.71,1.36,1.26l-1.65,1.11c-.19-.29-.41-.51-.66-.66-.33-.2-.71-.3-1.2-.3-.59,0-1.07.22-1.42.66-.35.42-.52.97-.52,1.62s.18,1.2.53,1.62c.37.45.86.66,1.47.66.49,0,.9-.11,1.22-.32.27-.18.5-.45.7-.81l1.68,1.08h.01Z"/>
    <path class="st1" d="M57.4,41.57h2.42l-3.22,4.58,3.38,3.58h-2.83l-2.26-2.45v2.46h-2.19v-8.16s2.19,0,2.19,0v3.72s2.51-3.73,2.51-3.73h0Z"/>
    <path class="st1" d="M60.76,41.58h5.73v1.84s-3.54,0-3.54,0v1.9h2.96v1.74h-2.96v.86s3.7,0,3.7,0v1.84h-5.9v-8.16h0Z"/>
    <path class="st1" d="M69.44,43.41h-2.16v-1.84s6.51,0,6.51,0v1.84s-2.16,0-2.16,0v6.32h-2.18s0-6.32,0-6.32Z"/>
  </g>
</svg>