<?xml version="1.0" encoding="UTF-8"?>
<svg id="Layer_1" xmlns="http://www.w3.org/2000/svg" version="1.1" viewBox="0 0 30 11">
  <!-- Generator: Adobe Illustrator 29.5.1, SVG Export Plug-In . SVG Version: 2.1.0 Build 141)  -->
  <defs>
    <style>
      .st0 {
        fill: #05586c;
      }
    </style>
  </defs>
  <path class="st0" d="M.45,10v-1.6L5.76,2.1l.31.9H.57V.98h7.77v1.6l-5.31,6.3-.31-.9h5.81v2.02H.45ZM13.85,10v-1.3l-.17-.32v-2.4c0-.39-.12-.68-.36-.89-.23-.21-.61-.32-1.12-.32-.34,0-.67.06-1.02.17-.34.1-.64.25-.88.44l-.82-1.66c.4-.26.87-.46,1.42-.59.56-.15,1.11-.22,1.66-.22,1.13,0,2.01.26,2.63.79.63.52.94,1.33.94,2.44v3.88h-2.28ZM11.79,10.12c-.56,0-1.03-.09-1.42-.28-.39-.19-.68-.45-.89-.77-.2-.33-.3-.69-.3-1.1,0-.43.11-.8.32-1.11.22-.32.56-.56,1.02-.72.46-.17,1.04-.26,1.77-.26h1.65v1.28h-1.31c-.4,0-.67.06-.84.19-.15.13-.23.3-.23.52s.08.39.24.52c.16.13.39.19.67.19.27,0,.51-.06.72-.19.22-.14.39-.34.49-.62l.34.9c-.13.48-.38.85-.76,1.1-.37.24-.86.36-1.47.36ZM17.68,10V.44h2.45v9.56h-2.45ZM25.22,10.12c-.76,0-1.44-.15-2.04-.46-.59-.31-1.06-.73-1.4-1.28-.34-.55-.5-1.18-.5-1.88s.17-1.33.5-1.87c.34-.54.81-.96,1.4-1.26.59-.31,1.27-.46,2.04-.46s1.44.15,2.04.46c.6.3,1.07.72,1.4,1.26.34.54.5,1.16.5,1.87s-.17,1.33-.5,1.88c-.34.54-.8.97-1.4,1.28-.59.31-1.27.46-2.04.46ZM25.22,8.17c.28,0,.53-.06.75-.19.22-.13.4-.32.53-.57.13-.26.19-.56.19-.92s-.06-.65-.19-.89c-.13-.25-.31-.44-.53-.57-.21-.13-.46-.19-.75-.19s-.52.06-.75.19c-.21.13-.39.32-.53.57-.13.24-.19.54-.19.89s.06.66.19.92c.14.25.31.44.53.57.22.13.47.19.75.19Z"/>
</svg>